<svg width="452" height="374" viewBox="0 0 452 374" fill="none" xmlns="http://www.w3.org/2000/svg">
<g clip-path="url(#clip0_12_2)">
<path d="M419.908 374V331.531C419.908 331.531 434.613 361.64 419.908 374Z" fill="#F1F1F1"/>
<path d="M420.816 373.993L393.019 345.272C393.019 345.272 422.671 353.442 420.816 373.993Z" fill="#F1F1F1"/>
<path d="M300.731 261.818C300.669 261.041 300.76 260.257 300.996 259.523C301.232 258.79 301.609 258.123 302.098 257.57C302.588 257.018 303.18 256.593 303.832 256.325C304.483 256.058 305.179 255.955 305.87 256.023L310.881 245.202L317.466 247.026L310.199 262.194C310.02 263.493 309.425 264.673 308.525 265.511C307.625 266.349 306.484 266.786 305.317 266.739C304.15 266.693 303.038 266.166 302.193 265.259C301.348 264.352 300.828 263.128 300.731 261.818Z" fill="#FFB7B7"/>
<path d="M330.643 367.231L325.086 367.231L322.442 343.109L330.644 343.109L330.643 367.231Z" fill="#FFB7B7"/>
<path d="M332.06 373.293L314.142 373.293V373.038C314.143 370.956 314.877 368.96 316.185 367.488C317.493 366.016 319.267 365.189 321.116 365.189L332.06 365.189L332.06 373.293Z" fill="#2F2E41"/>
<path d="M375.334 362.559L369.973 364.204L361.783 341.715L369.696 339.287L375.334 362.559Z" fill="#FFB7B7"/>
<path d="M378.119 367.988L360.833 373.293L360.773 373.047C360.286 371.039 360.529 368.895 361.446 367.088C362.364 365.281 363.882 363.958 365.666 363.41L376.224 360.17L378.119 367.988Z" fill="#2F2E41"/>
<path d="M320.498 263.029L317.726 310.403L323.681 363.553L333.433 360.202L333.844 312.713L341.646 285.329L364.746 358.469L375.32 354.079L366.594 306.589L361.666 261.989L320.498 263.029Z" fill="#2F2E41"/>
<path d="M347.446 179.841L331.022 182.567L325.106 189.153L323.268 212.816L324.409 233.776L319.653 270.737C319.653 270.737 331.614 263.264 340.883 272.619C350.153 281.974 363.123 274.272 363.39 268.049L347.446 179.841Z" fill="#CBCBCB"/>
<path d="M339.106 209.519L339.106 209.492L347.265 179.561L347.37 179.553C347.951 179.51 361.63 178.603 364.689 186.204L364.704 186.241L363.775 217.346L365.055 266.061L339.756 272.228L339.572 272.273L339.106 209.519Z" fill="#2F2E41"/>
<path d="M330.065 207.45L331.561 182.076C320.917 182.821 321.077 191.315 321.089 191.685L320.973 229.64L318.841 270.244L326.592 269.59L330.065 207.45Z" fill="#2F2E41"/>
<path d="M306.062 253.62L315.512 228.935L322.108 215.302L325.552 239.894L313.595 260.08L306.062 253.62Z" fill="#2F2E41"/>
<path d="M345.118 244.537C345.263 243.774 345.555 243.055 345.973 242.432C346.391 241.809 346.925 241.297 347.538 240.932C348.151 240.567 348.828 240.357 349.52 240.318C350.213 240.279 350.905 240.411 351.547 240.706L359.172 232.031L364.986 235.959L354.066 248.04C353.555 249.222 352.677 250.152 351.597 250.653C350.518 251.155 349.313 251.193 348.21 250.762C347.107 250.33 346.183 249.458 345.613 248.31C345.043 247.163 344.867 245.821 345.118 244.537Z" fill="#FFB7B7"/>
<path d="M351.53 237.539L367.075 218.346L356.785 201.82L357.844 193.741L363.909 185.309L364.027 185.481C364.673 186.423 379.865 208.635 380.3 217.044C380.738 225.484 358.903 246.833 357.973 247.738L357.844 247.864L351.53 237.539Z" fill="#2F2E41"/>
<path d="M337.969 177.762C344.071 177.762 349.018 172.195 349.018 165.327C349.018 158.46 344.071 152.892 337.969 152.892C331.867 152.892 326.92 158.46 326.92 165.327C326.92 172.195 331.867 177.762 337.969 177.762Z" fill="#FFB7B7"/>
<path d="M348.361 155.386L348.896 154.173L346.201 152.666C346.201 152.666 343.228 147.221 337.848 148.751C332.467 150.281 330.047 151.197 330.047 151.197L327.359 152.719L328.708 154.23L326.287 155.146L327.904 156.05L326.023 157.268L327.036 163.507C327.036 163.507 328.718 158.775 331.952 160.583C335.186 162.392 341.102 159.648 341.102 159.648L346.242 170.843C346.242 170.843 347.302 166.919 349.193 167.965C349.193 167.965 354.022 159.309 348.361 155.386Z" fill="#2F2E41"/>
<path d="M223.344 225.788L55.327 277.939L0 52.1507L168.017 0L223.344 225.788Z" fill="white"/>
<path d="M223.344 225.788L55.327 277.939L0 52.1507L168.017 0L223.344 225.788ZM57.4736 273.683L219.562 223.372L165.87 4.25599L3.78153 54.5667L57.4736 273.683Z" fill="#F1F1F1"/>
<path d="M131.452 101.149L89.336 114.222C88.7418 114.405 88.1073 114.316 87.5715 113.974C87.0357 113.632 86.6424 113.064 86.4779 112.396L74.8628 64.9947C74.6996 64.3261 74.7788 63.6119 75.083 63.0088C75.3871 62.4058 75.8914 61.9632 76.4852 61.7781L118.602 48.7055C119.196 48.5219 119.83 48.6111 120.366 48.9534C120.902 49.2957 121.295 49.8632 121.46 50.5315L133.075 97.9326C133.238 98.6012 133.159 99.3154 132.855 99.9185C132.55 100.522 132.046 100.964 131.452 101.149ZM76.7323 62.7866C76.376 62.8977 76.0734 63.1633 75.8909 63.5251C75.7084 63.8869 75.6609 64.3154 75.7588 64.7166L87.374 112.118C87.4726 112.519 87.7086 112.859 88.0301 113.065C88.3516 113.27 88.7323 113.323 89.0888 113.213L131.205 100.141C131.562 100.03 131.864 99.7641 132.047 99.4023C132.229 99.0405 132.277 98.6119 132.179 98.2107L120.564 50.8097C120.465 50.4087 120.229 50.0682 119.907 49.8628C119.586 49.6574 119.205 49.6039 118.849 49.7141L76.7323 62.7866Z" fill="#E5E5E5"/>
<path d="M120.776 110.703L78.6597 123.776C78.1249 123.941 77.5538 123.861 77.0716 123.553C76.5894 123.245 76.2354 122.734 76.0874 122.132L64.4722 74.7312C64.3254 74.1294 64.3967 73.4867 64.6704 72.9439C64.9441 72.4012 65.398 72.0028 65.9324 71.8362L108.049 58.7637C108.584 58.5984 109.155 58.6787 109.637 58.9867C110.119 59.2948 110.473 59.8056 110.621 60.4071L122.236 107.808C122.383 108.41 122.312 109.053 122.038 109.595C121.764 110.138 121.311 110.537 120.776 110.703Z" fill="#66D1FF"/>
<path d="M169.566 117.174L52.0353 153.655L53.2878 158.766L170.819 122.286L169.566 117.174Z" fill="#F1F1F1"/>
<path d="M172.832 130.502L55.3011 166.982L56.5537 172.094L174.084 135.614L172.832 130.502Z" fill="#F1F1F1"/>
<path d="M176.098 143.83L58.567 180.31L59.8195 185.422L177.35 148.941L176.098 143.83Z" fill="#F1F1F1"/>
<path d="M181.846 167.286L64.3148 203.767L65.5674 208.879L183.098 172.398L181.846 167.286Z" fill="#F1F1F1"/>
<path d="M185.111 180.614L67.5806 217.095L68.8332 222.206L186.364 185.726L185.111 180.614Z" fill="#F1F1F1"/>
<path d="M188.377 193.942L70.8464 230.422L72.099 235.534L189.63 199.054L188.377 193.942Z" fill="#F1F1F1"/>
<path d="M277.127 277.184H102.838V42.9673H277.127V277.184Z" fill="white"/>
<path d="M277.127 277.184H102.838V42.9673H277.127V277.184ZM105.913 273.724H274.052V46.4278H105.913V273.724Z" fill="#E5E5E5"/>
<path d="M245.394 143.654H145.746V148.957H245.394V143.654Z" fill="#66D1FF"/>
<path d="M245.394 157.441H145.746V162.743H245.394V157.441Z" fill="#66D1FF"/>
<path d="M245.394 171.227H145.746V176.53H245.394V171.227Z" fill="#66D1FF"/>
<path d="M137.645 150.543C139.343 150.543 140.72 148.993 140.72 147.082C140.72 145.171 139.343 143.622 137.645 143.622C135.947 143.622 134.57 145.171 134.57 147.082C134.57 148.993 135.947 150.543 137.645 150.543Z" fill="#66D1FF"/>
<path d="M245.394 84.2483H145.746V89.5508H245.394V84.2483Z" fill="#E5E5E5"/>
<path d="M245.394 98.0349H145.746V103.337H245.394V98.0349Z" fill="#E5E5E5"/>
<path d="M245.394 111.821H145.746V117.124H245.394V111.821Z" fill="#E5E5E5"/>
<path d="M137.645 90.5602C139.343 90.5602 140.72 89.0109 140.72 87.0997C140.72 85.1885 139.343 83.6392 137.645 83.6392C135.947 83.6392 134.57 85.1885 134.57 87.0997C134.57 89.0109 135.947 90.5602 137.645 90.5602Z" fill="#E5E5E5"/>
<path d="M245.394 203.637H145.746V208.939H245.394V203.637Z" fill="#E5E5E5"/>
<path d="M245.394 217.423H145.746V222.726H245.394V217.423Z" fill="#E5E5E5"/>
<path d="M245.394 231.21H145.746V236.512H245.394V231.21Z" fill="#E5E5E5"/>
<path d="M137.645 209.949C139.343 209.949 140.72 208.399 140.72 206.488C140.72 204.577 139.343 203.028 137.645 203.028C135.947 203.028 134.57 204.577 134.57 206.488C134.57 208.399 135.947 209.949 137.645 209.949Z" fill="#E5E5E5"/>
<path d="M268.99 297.353C288.664 297.353 304.613 279.402 304.613 257.259C304.613 235.116 288.664 217.166 268.99 217.166C249.315 217.166 233.366 235.116 233.366 257.259C233.366 279.402 249.315 297.353 268.99 297.353Z" fill="#66D1FF"/>
<path d="M278.859 254.702V247.03C278.86 245.571 278.606 244.126 278.11 242.777C277.615 241.428 276.888 240.203 275.971 239.17C275.055 238.138 273.966 237.319 272.768 236.76C271.57 236.202 270.286 235.914 268.99 235.914C267.693 235.914 266.409 236.202 265.211 236.76C264.013 237.319 262.925 238.138 262.008 239.17C261.092 240.203 260.365 241.428 259.869 242.777C259.374 244.126 259.119 245.571 259.12 247.03V254.702C257.801 254.769 256.555 255.405 255.642 256.479C254.729 257.554 254.22 258.982 254.219 260.469V278.597H283.76V260.469C283.76 258.982 283.25 257.554 282.337 256.479C281.424 255.405 280.179 254.769 278.859 254.702ZM268.99 239.833C270.685 239.835 272.31 240.594 273.509 241.944C274.708 243.293 275.382 245.122 275.384 247.03V254.688H262.595V247.03C262.597 245.122 263.272 243.293 264.47 241.944C265.669 240.594 267.294 239.835 268.99 239.833Z" fill="white"/>
<path d="M271.645 263.654C271.645 263.139 271.527 262.632 271.302 262.184C271.077 261.735 270.752 261.359 270.36 261.093C269.968 260.827 269.522 260.68 269.064 260.666C268.606 260.651 268.153 260.77 267.748 261.011C267.344 261.252 267.001 261.607 266.754 262.041C266.507 262.475 266.364 262.973 266.338 263.487C266.313 264.002 266.406 264.515 266.609 264.977C266.812 265.439 267.117 265.834 267.496 266.124V272.62H270.483V266.124C270.841 265.85 271.134 265.482 271.337 265.052C271.539 264.621 271.645 264.141 271.645 263.654Z" fill="#66D1FF"/>
<path d="M451.478 373.762H252.739C252.601 373.762 252.468 373.7 252.371 373.59C252.273 373.479 252.218 373.33 252.218 373.174C252.218 373.019 252.273 372.869 252.371 372.759C252.468 372.649 252.601 372.587 252.739 372.587H451.478C451.617 372.587 451.749 372.649 451.847 372.759C451.945 372.869 452 373.019 452 373.174C452 373.33 451.945 373.479 451.847 373.59C451.749 373.7 451.617 373.762 451.478 373.762Z" fill="#CBCBCB"/>
</g>
<defs>
<clipPath id="clip0_12_2">
<rect width="452" height="374" fill="white"/>
</clipPath>
</defs>
</svg>
