<svg width="452" height="309" viewBox="0 0 452 309" fill="none" xmlns="http://www.w3.org/2000/svg">
<g clip-path="url(#clip0_13_47)">
<path d="M157.046 295.99C156.687 296.007 156.331 295.912 156.027 295.72C155.723 295.527 155.485 295.246 155.346 294.913C155.207 294.581 155.174 294.214 155.25 293.862C155.327 293.511 155.51 293.191 155.774 292.946L155.894 292.468C155.878 292.43 155.863 292.391 155.847 292.353C155.484 291.497 154.877 290.768 154.102 290.256C153.326 289.744 152.416 289.473 151.487 289.476C150.558 289.479 149.65 289.758 148.879 290.275C148.107 290.793 147.505 291.527 147.149 292.386C145.727 295.812 143.916 299.245 143.47 302.868C143.273 304.469 143.356 306.093 143.715 307.666C140.373 300.376 138.639 292.454 138.627 284.435C138.627 282.423 138.738 280.412 138.962 278.412C139.147 276.773 139.404 275.145 139.732 273.529C141.523 264.761 145.367 256.543 150.95 249.549C153.653 248.075 155.838 245.807 157.212 243.052C157.71 242.061 158.061 241.004 158.256 239.913C157.951 239.953 157.107 235.31 157.337 235.025C156.912 234.38 156.152 234.06 155.688 233.431C153.38 230.302 150.201 230.848 148.542 235.1C144.997 236.89 144.962 239.857 147.138 242.712C148.521 244.528 148.712 246.985 149.926 248.929C149.801 249.089 149.671 249.244 149.546 249.404C147.262 252.341 145.272 255.495 143.603 258.82C144.009 255.095 143.525 251.327 142.19 247.825C140.838 244.561 138.303 241.813 136.07 238.992C133.389 235.603 127.89 237.082 127.417 241.378C127.413 241.419 127.408 241.461 127.404 241.502C127.735 241.689 128.06 241.888 128.378 242.098C128.777 242.365 129.086 242.746 129.265 243.191C129.443 243.636 129.484 244.125 129.38 244.594C129.276 245.063 129.033 245.489 128.683 245.817C128.333 246.145 127.892 246.36 127.417 246.433L127.369 246.44C127.487 247.636 127.696 248.82 127.993 249.984C125.129 261.062 131.313 265.097 140.142 265.278C140.336 265.378 140.526 265.478 140.721 265.573C139.045 270.324 137.993 275.274 137.593 280.297C137.366 283.26 137.38 286.237 137.633 289.198L137.618 289.093C136.978 285.8 135.222 282.829 132.646 280.682C128.819 277.538 123.413 276.38 119.285 273.853C118.847 273.572 118.337 273.421 117.815 273.42C117.294 273.419 116.783 273.566 116.343 273.846C115.903 274.126 115.552 274.525 115.332 274.998C115.111 275.47 115.03 275.996 115.099 276.513C115.104 276.55 115.11 276.586 115.116 276.623C115.731 276.874 116.33 277.163 116.91 277.488C117.241 277.675 117.566 277.874 117.884 278.084C118.283 278.35 118.592 278.731 118.77 279.177C118.949 279.622 118.989 280.111 118.886 280.579C118.782 281.048 118.539 281.474 118.189 281.802C117.839 282.131 117.398 282.345 116.923 282.418L116.875 282.426C116.84 282.431 116.81 282.436 116.775 282.441C117.826 284.952 119.302 287.263 121.137 289.273C122.928 298.944 130.62 299.861 138.847 297.045H138.852C139.755 300.968 141.063 304.787 142.755 308.44H156.697C156.747 308.285 156.792 308.125 156.837 307.971C155.547 308.052 154.251 307.975 152.979 307.741C154.014 306.471 155.048 305.192 156.082 303.922C156.106 303.898 156.127 303.873 156.147 303.847C156.672 303.197 157.202 302.553 157.727 301.903L157.727 301.902C157.755 299.911 157.526 297.923 157.046 295.99Z" fill="#F2F2F2"/>
<path d="M49.8086 274.899L53.6555 278.966L71.5177 265.73L65.8403 259.728L49.8086 274.899Z" fill="#A0616A"/>
<path d="M56.1124 277.149L51.7573 273.057L50.6879 272.054L39.6007 280.92L42.4848 283.969L45.8796 281.791L44.3201 285.909L51.9668 293.993C52.3331 294.38 52.8138 294.641 53.3387 294.736C53.8635 294.831 54.405 294.756 54.8841 294.521C55.3633 294.287 55.7549 293.906 56.002 293.433C56.249 292.96 56.3385 292.421 56.2574 291.893L54.6071 281.215L57.5152 278.464L56.1124 277.149Z" fill="#2F2E41"/>
<path d="M134.352 126.841L133.133 140.158C133.133 140.158 131.004 150.191 132.478 149.378C133.952 148.564 131.309 152.225 132.005 155.399C132.701 158.573 126.059 182.242 129.068 179.79C132.076 177.338 127.329 194.277 124.327 202.633C123.408 205.217 122.463 207.831 121.513 210.427C121.325 210.953 121.137 211.472 120.944 211.997C119.712 215.375 118.479 218.703 117.298 221.843C117.129 222.281 116.966 222.718 116.803 223.15C116.797 223.162 116.797 223.175 116.791 223.175C112.901 233.415 109.567 241.471 108.235 242.804C107.541 243.498 96.5278 251.454 85.4269 259.423C73.7756 267.786 62.0303 276.168 62.0303 276.168L51.0607 264.659C51.0607 264.659 51.3233 264.584 51.8175 264.434C52.7306 264.171 54.4193 263.677 56.6332 263.02C65.8641 260.299 54.1377 256.064 62.5184 253.037C64.8823 252.186 66.4583 251.523 66.8147 251.173C68.8973 249.14 71.693 244.292 73.0126 246.325C74.3321 248.358 80.3174 233.252 82.0434 231.757C82.969 230.95 85.9897 227.178 88.579 223.863C90.8052 221.011 92.719 218.49 92.719 218.49C92.719 218.49 92.7565 217.139 92.8127 214.987C92.8942 211.803 93.013 206.856 93.1382 201.902C93.1318 201.895 93.1318 201.895 93.1382 201.895C93.1819 200.031 93.2256 198.167 93.2696 196.397C93.3007 195.027 93.3319 193.707 93.3633 192.487C93.4445 188.835 93.5007 186.07 93.5007 185.382C93.5007 183.124 93.5007 184.881 95.2832 183.518C95.5494 183.309 95.8021 183.083 96.04 182.842C96.421 182.499 96.7726 182.125 97.0908 181.722C97.2221 181.441 96.4027 181.823 95.3394 181.61C94.7636 181.494 94.2311 181.222 93.8009 180.822C91.5619 178.808 93.9762 172.615 93.9762 172.615C88.8853 162.432 89.2545 154.081 91.637 147.645C93.4187 143.026 96.2466 138.883 99.8986 135.541C101.289 134.217 102.803 133.029 104.421 131.995L104.577 131.15L106.297 121.836C107.211 121.334 108.163 120.901 109.142 120.542C112.197 119.446 115.475 119.119 118.686 119.591C121.877 120.053 124.967 121.053 127.823 122.55C130.158 123.723 132.349 125.163 134.352 126.841Z" fill="#2F2E41"/>
<path d="M86.3185 295.647L91.8915 296.166L96.5877 274.433L88.3617 273.668L86.3185 295.647Z" fill="#A0616A"/>
<path d="M102.369 304.166L94.0885 297.229L94.4638 293.238L92.5379 293.176L86.5715 292.982H86.5651L85.1017 292.932L82.6187 306.906L86.8026 307.293L87.9096 303.415L89.4545 307.544L91.6684 307.75L100.53 308.576C100.606 308.582 100.687 308.588 100.762 308.588C101.114 308.589 101.463 308.514 101.784 308.37C102.105 308.225 102.392 308.014 102.626 307.75C102.988 307.353 103.21 306.847 103.257 306.311C103.294 305.909 103.232 305.503 103.077 305.129C102.923 304.755 102.68 304.425 102.369 304.166Z" fill="#2F2E41"/>
<path d="M117.298 221.843C115.177 233.383 106.203 260.443 100.774 276.281C98.3039 283.518 96.5779 288.416 96.5779 288.416L93.7635 287.528H93.7571L88.9979 286.026L87.2655 285.476H87.2591L85.1578 284.807C85.1578 284.807 85.4018 271.883 85.4268 259.423C85.4455 254.2 85.4204 249.052 85.3206 244.974C85.2079 240.527 85.014 237.343 84.6952 236.711C83.3753 234.121 85.5832 233.846 87.9159 233.196C90.2548 232.539 88.4287 231.551 87.5217 229.449C86.9091 228.048 88.116 226.178 88.9728 225.114C89.2093 224.815 89.4619 224.529 89.7296 224.257C89.7296 224.257 89.3167 224.113 88.5789 223.863C90.8051 221.011 92.7189 218.49 92.7189 218.49C92.7189 218.49 92.7565 217.139 92.8126 214.987C92.8942 211.803 93.013 206.856 93.1382 201.902C93.1318 201.895 93.1318 201.895 93.1382 201.895C93.1818 200.031 93.2255 198.167 93.2695 196.397C96.8467 199.143 100.324 201.833 103.476 204.322C103.48 204.325 103.483 204.329 103.485 204.333C103.487 204.338 103.488 204.343 103.489 204.347C111.062 210.333 116.747 215.137 117.548 216.664C117.91 217.351 117.785 219.191 117.298 221.843Z" fill="#2F2E41"/>
<path d="M303.749 18.0727C304.791 17.9751 305.831 18.2883 306.646 18.9457C307.461 19.603 307.988 20.5525 308.114 21.5922C308.136 21.8039 308.141 22.0171 308.128 22.2296L321.025 27.738L320.533 35.2667L303.681 25.8105C302.804 25.6887 301.992 25.2801 301.372 24.6483C300.752 24.0164 300.358 23.197 300.252 22.3179C300.197 21.8171 300.241 21.3103 300.381 20.8264C300.522 20.3425 300.756 19.8911 301.071 19.4978C301.386 19.1045 301.775 18.7772 302.217 18.5344C302.658 18.2916 303.143 18.1381 303.644 18.0828C303.679 18.0789 303.714 18.0756 303.749 18.0727Z" fill="#FFB6B6"/>
<path d="M391.494 64.5462C391.176 63.0866 390.584 61.7006 389.749 60.4615C389.517 60.1089 389.265 59.7705 388.993 59.4481C387.98 58.2411 387.035 57.1339 386.16 56.1455C385.628 55.5261 385.109 54.9507 384.621 54.4193C381.788 51.3104 379.931 49.6654 379.08 49.5276C378.667 49.4589 378.261 49.4088 377.867 49.3587C375.847 49.1086 374.383 48.9271 374.339 46.7941C374.335 46.4885 374.356 46.183 374.402 45.8808C374.478 45.3734 374.588 44.8718 374.733 44.3797C374.817 44.1007 374.881 43.8165 374.927 43.5291C374.99 43.1601 374.965 42.8846 374.765 42.7157C374.514 42.5096 374.095 42.5407 373.307 42.8535C373.182 42.9036 373.039 42.9597 372.888 43.0285C372.838 43.0474 372.788 43.0724 372.732 43.0975C372.632 43.1412 372.519 43.1913 372.407 43.2475C371.463 43.698 370.005 43.7542 368.342 43.5852C363.432 43.085 356.791 40.608 356.709 40.5765L314.882 24.3197L314.494 24.9452L313.575 26.4338L313.256 26.9467L312.893 27.5346L311.311 30.0867L310.51 31.3753L324.019 41.5648L325.489 42.672L326.752 43.6292L352.544 63.0887L362.163 69.4375L364.308 70.851L373.451 76.881C374.766 77.7495 376.24 78.3459 377.789 78.6349C379.337 78.924 380.928 78.8999 382.467 78.5641C384.006 78.2283 385.462 77.5876 386.749 76.6797C388.037 75.7718 389.129 74.6153 389.962 73.2782C391.586 70.6764 392.135 67.5455 391.494 64.5462Z" fill="#E6E6E6"/>
<path d="M451.375 309H0.625406C0.459538 309 0.300463 308.934 0.183177 308.817C0.0658903 308.7 0 308.54 0 308.375C0 308.209 0.0658903 308.05 0.183177 307.932C0.300463 307.815 0.459538 307.749 0.625406 307.749H451.375C451.54 307.749 451.7 307.815 451.817 307.932C451.934 308.05 452 308.209 452 308.375C452 308.54 451.934 308.7 451.817 308.817C451.7 308.934 451.54 309 451.375 309Z" fill="#E6E6E6"/>
<path d="M103.139 104.329L104.311 115.202L103.622 129.458L135.195 125.707L138.162 104.329L134.382 104.367L103.139 104.329Z" fill="#FFB6B6"/>
<path d="M129.996 69.212L118.113 59.8294L111.875 59.4667L102.62 65.397L100.353 76.961L94.9935 89.983L102.855 125.125C102.855 125.125 103.592 127.647 101.66 127.95C99.728 128.253 99.9597 131.97 99.9597 131.97C99.9597 131.97 100.353 135.191 98.4769 135.475C96.6007 135.759 91.5977 135.759 95.9756 141.388C100.353 147.018 134.979 125.726 134.979 125.726L140.009 99.3331C140.009 99.3331 149.762 86.2311 139.258 78.7273L129.996 69.212Z" fill="#E6E6E6"/>
<path d="M78.1221 149.001C77.5985 148.348 77.2245 147.587 77.0265 146.774C76.8285 145.96 76.8113 145.113 76.9761 144.292C77.1408 143.471 77.4836 142.696 77.9802 142.022C78.4768 141.347 79.1152 140.79 79.8503 140.389L94.7969 90.2207L104.143 94.9268L87.8658 143.013C88.457 144.293 88.5584 145.745 88.1506 147.095C87.7428 148.444 86.8542 149.597 85.6531 150.336C84.4521 151.074 83.0221 151.345 81.6341 151.1C80.246 150.854 78.9964 150.107 78.1221 149.001Z" fill="#A0616A"/>
<path d="M104.766 64.9328C104.766 64.9328 102.095 63.5127 100.267 69.6579C98.8042 74.5776 86.9331 103.881 86.7817 111.006C85.8047 111.213 84.9244 111.739 84.2795 112.502C83.6345 113.264 83.2615 114.22 83.2192 115.218L97.8968 117.185C100.462 115.021 101.134 112.099 100.142 111.232L103.329 102.527L116.624 74.8294L106.716 65.925L104.766 64.9328Z" fill="#E6E6E6"/>
<path d="M183.193 132.511C183.382 131.695 183.391 130.848 183.218 130.028C183.044 129.209 182.694 128.438 182.19 127.769C181.686 127.1 181.042 126.549 180.303 126.156C179.564 125.763 178.747 125.537 177.911 125.493L143.624 86.3282L136.351 95.0083L171.818 131.326C171.839 132.735 172.375 134.089 173.326 135.129C174.278 136.17 175.577 136.825 176.979 136.971C178.381 137.117 179.788 136.744 180.934 135.922C182.079 135.1 182.883 133.886 183.193 132.511Z" fill="#A0616A"/>
<path d="M122.82 68.2335C122.82 68.2335 124.615 65.7975 128.92 70.548C132.366 74.3511 155.74 95.6388 158.957 101.997C159.927 101.761 160.948 101.855 161.86 102.264C162.771 102.672 163.52 103.373 163.99 104.254L151.606 112.376C148.358 111.535 146.488 109.191 147.008 107.98L140.371 101.509L116.407 82.2855L121.491 69.9712L122.82 68.2335Z" fill="#E6E6E6"/>
<path d="M250.68 175.767C299.036 175.767 338.236 136.56 338.236 88.1955C338.236 39.8312 299.036 0.624268 250.68 0.624268C202.323 0.624268 163.123 39.8312 163.123 88.1955C163.123 136.56 202.323 175.767 250.68 175.767Z" fill="#66D1FF"/>
<path opacity="0.2" d="M246.538 119.189C242.527 123.201 237.087 125.455 231.414 125.455C225.742 125.455 220.302 123.201 216.291 119.189C212.844 115.74 210.678 111.217 210.152 106.37C209.627 101.522 210.773 96.6396 213.4 92.532L208.695 97.3334C204.684 101.345 202.43 106.786 202.43 112.46C202.43 118.133 204.684 123.574 208.695 127.586C212.706 131.598 218.146 133.851 223.819 133.851C229.491 133.851 234.931 131.598 238.942 127.586L249.37 116.757L249.528 116.084L246.538 119.189Z" fill="black"/>
<path opacity="0.2" d="M256.471 52.2868C261.16 49.0931 266.924 47.893 272.498 48.9504C278.071 50.0078 282.995 53.2362 286.189 57.9254C288.932 61.9562 290.217 66.8036 289.83 71.6646C289.443 76.5255 287.408 81.1084 284.061 84.6542L289.578 80.8141C294.267 77.6204 297.495 72.6947 298.552 67.1207C299.609 61.5467 298.409 55.7809 295.216 51.0918C292.023 46.4026 287.098 43.1742 281.525 42.1168C275.952 41.0593 270.187 42.2595 265.499 45.4532L253.236 54.1487L252.954 54.7805L256.471 52.2868Z" fill="black"/>
<path d="M223.819 136.528C219.217 136.528 214.719 135.163 210.893 132.606C207.068 130.05 204.086 126.416 202.325 122.164C200.564 117.912 200.103 113.234 201.001 108.72C201.899 104.206 204.114 100.06 207.368 96.8062L227.111 76.6601C229.271 74.4966 231.836 72.78 234.659 71.6083C237.482 70.4367 240.509 69.833 243.565 69.8318C246.622 69.8306 249.649 70.4318 252.473 71.6012C255.297 72.7706 257.864 74.4852 260.025 76.647C260.377 76.9989 260.574 77.4761 260.574 77.9738C260.574 78.4714 260.377 78.9486 260.025 79.3005C259.673 79.6524 259.196 79.8501 258.698 79.8501C258.201 79.8501 257.724 79.6524 257.372 79.3005C253.713 75.6408 248.75 73.5848 243.575 73.5848C238.4 73.5849 233.437 75.6409 229.778 79.3006C226.878 89.5253 220.612 96.5409 210.035 99.4467C208.22 101.257 206.779 103.408 205.796 105.776C204.813 108.144 204.305 110.682 204.303 113.246C204.301 115.81 204.804 118.35 205.783 120.719C206.763 123.089 208.2 125.242 210.011 127.056C211.823 128.869 213.975 130.308 216.343 131.29C218.711 132.272 221.249 132.778 223.813 132.778C226.377 132.778 228.915 132.274 231.283 131.292C233.652 130.311 235.804 128.872 237.616 127.059C237.188 122.864 238.414 118.921 248.019 116.255C248.189 116.077 248.394 115.934 248.62 115.834C248.846 115.735 249.089 115.682 249.336 115.677C249.583 115.672 249.828 115.715 250.058 115.805C250.287 115.896 250.497 116.03 250.675 116.201C250.853 116.372 250.995 116.577 251.094 116.803C251.192 117.03 251.245 117.273 251.249 117.52C251.254 117.767 251.209 118.012 251.119 118.242C251.028 118.471 250.893 118.681 250.721 118.858L240.294 129.687C238.137 131.861 235.57 133.586 232.742 134.76C229.914 135.934 226.881 136.535 223.819 136.528Z" fill="white"/>
<path d="M255.872 108.028C252.815 108.036 249.788 107.438 246.964 106.268C244.14 105.098 241.576 103.38 239.421 101.212C239.069 100.86 238.872 100.383 238.872 99.8853C238.872 99.3877 239.07 98.9104 239.421 98.5585C239.773 98.2066 240.251 98.009 240.748 98.009C241.246 98.0091 241.723 98.2068 242.075 98.5588C243.887 100.371 246.038 101.809 248.405 102.789C250.772 103.77 253.309 104.275 255.872 104.275C258.434 104.275 260.971 103.77 263.339 102.789C265.706 101.809 267.857 100.371 269.669 98.5588C272.169 83.4938 282.363 81.3677 291.224 77.0002C293.036 75.188 294.473 73.0366 295.454 70.6689C296.435 68.3012 296.939 65.7635 296.939 63.2007C296.939 60.6379 296.434 58.1002 295.454 55.7325C294.473 53.3648 293.036 51.2134 291.224 49.4013C289.412 47.5891 287.261 46.1516 284.894 45.1709C282.527 44.1902 279.989 43.6854 277.427 43.6854C274.865 43.6855 272.327 44.1903 269.96 45.171C267.593 46.1518 265.442 47.5893 263.63 49.4014C261.165 56.5142 258.745 63.7109 251.403 61.63C251.229 61.8043 251.022 61.9425 250.795 62.0368C250.567 62.1311 250.323 62.1796 250.077 62.1796C249.579 62.1796 249.102 61.9819 248.75 61.6301C248.398 61.2782 248.201 60.8009 248.2 60.3033C248.2 59.8056 248.398 59.3283 248.75 58.9764L260.977 46.7479C263.137 44.5872 265.701 42.8733 268.524 41.704C271.347 40.5346 274.372 39.9328 277.427 39.9327C280.482 39.9327 283.507 40.5346 286.33 41.7039C289.152 42.8732 291.717 44.5871 293.877 46.7477C296.037 48.9084 297.751 51.4734 298.92 54.2964C300.089 57.1194 300.691 60.1451 300.691 63.2007C300.691 66.2563 300.089 69.282 298.92 72.105C297.751 74.928 296.038 77.493 293.877 79.6537L272.322 101.213C270.167 103.38 267.603 105.098 264.779 106.268C261.956 107.438 258.928 108.036 255.872 108.028Z" fill="white"/>
<path d="M326.752 43.6292C323.075 37.3829 318.65 31.6085 313.575 26.4338C312.443 25.2829 311.274 24.1568 310.079 23.0622C309.416 22.4556 308.747 21.8613 308.065 21.2794C306.771 20.1662 305.439 19.0902 304.081 18.052C288.75 6.32312 269.98 -0.0218874 250.678 -6.59728e-05C202.059 -6.59728e-05 162.496 39.5634 162.496 88.1967C162.493 93.5592 162.981 98.9107 163.953 104.184C163.954 104.214 163.958 104.243 163.965 104.272C164.409 106.693 164.96 109.082 165.598 111.428C170.117 127.984 179.367 142.862 192.216 154.238C205.065 165.613 220.953 172.992 237.932 175.47C254.912 177.947 272.246 175.416 287.808 168.186C303.37 160.955 316.485 149.341 325.545 134.766C326.765 132.801 327.911 130.787 328.985 128.723C335.833 115.506 339.22 100.769 338.83 85.8884C338.439 71.0075 334.284 56.4684 326.752 43.6292ZM250.678 175.142C239.261 175.146 227.955 172.9 217.406 168.532C206.857 164.164 197.272 157.76 189.199 149.685C181.126 141.611 174.723 132.024 170.356 121.474C165.988 110.923 163.743 99.6156 163.746 88.1967C163.746 40.2512 202.747 1.25095 250.678 1.25095C262.277 1.25753 273.758 3.58649 284.443 8.10056C295.128 12.6146 304.802 19.2224 312.893 27.5345C315.004 29.6891 316.995 31.9569 318.86 34.3278C320.706 36.6477 322.428 39.0634 324.019 41.5648C330.654 51.989 334.989 63.7084 336.736 75.9412C338.483 88.174 337.602 100.639 334.151 112.504C333.381 115.156 332.481 117.752 331.468 120.298C330.448 122.85 329.316 125.352 328.066 127.779C320.751 142.014 309.662 153.962 296.013 162.316C282.364 170.669 266.68 175.107 250.678 175.142Z" fill="#3F3D56"/>
<path d="M370.638 295.846L364.89 295.797L362.345 273.105L370.829 273.177L370.638 295.846Z" fill="#FFB6B6"/>
<path d="M372.163 293.194L370.662 293.094L364.539 292.675L362.569 292.544L362.532 296.654L353.351 302.884C352.897 303.192 352.554 303.637 352.372 304.154C352.189 304.671 352.176 305.232 352.336 305.757C352.495 306.282 352.818 306.742 353.257 307.07C353.696 307.398 354.228 307.577 354.777 307.581L366.203 307.675L368.204 303.622L368.936 307.7L373.251 307.737L372.163 293.194Z" fill="#2F2E41"/>
<path d="M431.159 291.645L425.665 293.335L416.39 272.469L424.5 269.976L431.159 291.645Z" fill="#FFB6B6"/>
<path d="M431.814 288.659L430.351 289.016L424.391 290.461L422.471 290.93L423.677 294.865L416.804 303.572C416.506 303.951 416.32 304.407 416.269 304.887C416.217 305.367 416.301 305.852 416.512 306.286C416.723 306.721 417.051 307.087 417.46 307.344C417.869 307.6 418.342 307.737 418.824 307.737C419.079 307.737 419.332 307.699 419.575 307.625L430.501 304.266L431.182 299.794L433.115 303.459L437.237 302.189L431.814 288.659Z" fill="#2F2E41"/>
<path d="M359.076 105.033L348.106 136.917L347.744 139.469C344.98 142.094 348.452 142.958 347.15 143.651C345.848 144.343 344.973 146.283 346.727 146.63C348.482 146.977 354.138 271.339 361.6 276.168C369.061 280.997 373.602 284.49 372.232 277.419C371.68 274.57 372.461 259.297 373.59 242.073C373.718 240.121 375.74 238.055 373.986 236.157C372.232 234.259 374.202 233.01 374.312 231.435C375.886 208.944 377.703 186.739 377.703 186.739C377.703 186.739 389.332 226.682 392.352 223.59C395.372 220.498 394.177 228.111 395.099 230.386C395.87 232.287 392.58 236.021 397.416 236.078C402.251 236.136 413.607 274.961 414.759 274.917C417.042 274.83 423.458 275.076 427.268 274.292C429.149 273.904 420.797 244.509 413.824 219.126C413.267 217.102 410.241 217.055 412.187 213.147C414.134 209.239 404.448 183.952 405.279 182.782C407.486 179.678 408.326 178.329 406.15 178.125C403.974 177.922 403.332 179.116 403.214 176.105C403.097 173.093 402.721 165.668 402.721 165.668C402.721 165.668 401.145 136.301 390.109 120.076L389.168 110.436L359.076 105.033Z" fill="#2F2E41"/>
<path d="M386.481 44.1571L371.934 46.2288L371.056 56.7643L363.878 67.9954C363.878 67.9954 347.921 79.2264 359.05 96.9679C354.815 112.251 350.604 126.908 346.59 136.68C343.463 156.071 371.477 157.929 403.502 151.066C403.502 151.066 403.061 142.775 400.154 138.789C397.248 134.803 398.83 133.933 398.83 133.933L396.799 126.486C397.948 115.722 394.068 114.756 392.245 109.783L397.781 58.1819L386.481 44.1571Z" fill="#E6E6E6"/>
<path d="M316.646 134.35C316.8 133.314 317.352 132.38 318.185 131.745C319.018 131.11 320.066 130.825 321.105 130.951C321.316 130.98 321.524 131.026 321.727 131.089L330.154 119.878L337.346 122.153L324.143 136.263C323.815 137.086 323.225 137.777 322.463 138.228C321.702 138.68 320.812 138.867 319.933 138.76C319.434 138.694 318.952 138.53 318.516 138.278C318.08 138.026 317.697 137.691 317.391 137.291C317.084 136.891 316.859 136.435 316.729 135.948C316.598 135.462 316.565 134.954 316.631 134.455C316.635 134.42 316.641 134.385 316.646 134.35Z" fill="#FFB6B6"/>
<path d="M391.494 64.5463C391.288 64.2897 391.063 64.0396 390.825 63.7956C389.173 62.0928 387.046 60.9286 384.721 60.4554C382.397 59.9822 379.984 60.2221 377.798 61.1435C377.585 61.2309 377.372 61.3311 377.166 61.4313C369.693 65.1028 365.659 67.5486 365.171 68.6933C365.002 69.0812 364.858 69.4627 364.714 69.8316C364.577 70.1945 364.445 70.5384 364.308 70.8511C363.733 72.1898 363.07 73.0218 361.381 72.6464C360.821 72.5095 360.281 72.3014 359.774 72.0273C359.542 71.9146 359.33 71.7958 359.129 71.6831C358.404 71.283 357.879 70.9953 357.522 71.258C357.178 71.5142 357.166 72.1648 357.479 73.6723C357.582 74.3015 357.565 74.9447 357.428 75.5675C357.015 77.3845 356.367 79.1402 355.502 80.7906C354.206 83.3776 352.748 85.8804 351.137 88.2842L336.258 109.501L335.252 110.934L334.151 112.504L325.37 125.027L325.889 125.558L328.066 127.779L328.547 128.273L328.985 128.723L330.117 129.88L331.18 130.963L354.902 111.634L357.547 109.476L362.288 105.611L372 97.6983L390.381 80.6843C391.541 79.6188 392.475 78.33 393.125 76.8951C393.775 75.4601 394.129 73.9087 394.165 72.3337C394.165 72.2274 394.171 72.1272 394.171 72.0209C394.178 69.2934 393.231 66.6492 391.494 64.5463Z" fill="#E6E6E6"/>
<path d="M377.748 43.7737C386.726 43.7737 394.003 36.4947 394.003 27.5156C394.003 18.5365 386.726 11.2574 377.748 11.2574C368.77 11.2574 361.493 18.5365 361.493 27.5156C361.493 36.4947 368.77 43.7737 377.748 43.7737Z" fill="#FFB6B6"/>
<path d="M399.29 50.0597C401.472 53.1825 402.931 56.7518 403.562 60.5088C401.804 61.6337 399.757 62.2246 397.67 62.2098C397.599 61.9365 397.529 61.6631 397.448 61.3897C396.843 59.2728 395.943 57.2515 394.775 55.3855C394.935 57.3977 394.662 59.4209 393.975 61.3188C392.872 60.8175 391.69 60.5125 390.483 60.4177C389.499 60.4176 388.528 60.6464 387.648 61.0859C386.626 57.694 385.684 54.5755 385.016 52.3378C384.996 57.9472 376.775 62.8376 367.806 62.1288C367.482 61.9263 370.732 52.7023 370.418 52.4897C369.699 52.0138 369.001 51.4975 368.302 50.9912C371.238 46.4551 374.427 41.5951 373.88 40.8661C373.921 41.7672 370.701 46.1008 367.199 50.1913C365.255 48.7637 376.3 25.5366 370.843 23.6534C370.752 24.4735 369.547 24.4735 368.079 24.3014C367.692 22.9482 367.116 21.6563 366.369 20.4639C366.466 21.6651 366.321 22.8735 365.943 24.0178C364.494 24.0183 363.048 24.171 361.631 24.4735C361.303 23.9573 360.941 23.4634 360.548 22.9952C360.586 23.5659 360.569 24.139 360.497 24.7063C359.049 25.0202 357.855 25.3847 357.683 25.6784C356.549 25.2632 358.482 23.3901 357.774 22.4181C355.972 19.9881 358.644 16.4443 360.335 13.9332C363.807 8.78969 371.43 7.00765 376.826 10.0958C377.069 9.2554 378.314 8.69853 379.914 8.32391C380.592 8.17446 381.285 8.10984 381.979 8.13153C388.863 8.25302 398.42 13.9332 398.794 20.8082C398.824 21.4967 398.875 22.2459 398.926 23.0458C399.412 30.7409 398.814 37.8387 404.068 43.4682C405.972 45.5033 405.992 55.1425 405.263 60.1038C403.37 58.1091 402.023 50.3533 399.29 50.0597Z" fill="#2F2E41"/>
<path d="M220.258 90.3921C221.294 90.3921 222.134 89.5519 222.134 88.5156C222.134 87.4792 221.294 86.639 220.258 86.639C219.222 86.639 218.382 87.4792 218.382 88.5156C218.382 89.5519 219.222 90.3921 220.258 90.3921Z" fill="#66D1FF"/>
<path d="M279.672 89.1411C280.708 89.1411 281.548 88.301 281.548 87.2646C281.548 86.2282 280.708 85.3881 279.672 85.3881C278.635 85.3881 277.795 86.2282 277.795 87.2646C277.795 88.301 278.635 89.1411 279.672 89.1411Z" fill="#66D1FF"/>
<path d="M101.075 34.2758C99.6468 37.8325 95.6186 44.8269 95.0729 48.6425L95.3185 48.401C95.787 49.2014 96.3193 49.9626 96.9104 50.6773C97.9697 49.5646 99.2491 48.6848 100.667 48.0938C99.8927 49.6828 99.4443 51.4108 99.3482 53.1759C100.868 57.9419 107.896 55.8195 112.014 55.2991C116.126 60.0034 121.597 61.231 128.76 58.5264C130.764 58.7327 133.007 58.8579 134.411 57.6738C135.815 56.4898 134.979 54.2969 135.734 52.6383C141.115 40.8244 136.149 36.562 131.93 31.2051C131.002 30.0262 131.006 28.267 129.876 27.1423C128.309 25.5832 125.906 25.1037 123.69 24.7196C124.266 24.7499 124.84 24.6315 125.356 24.3759C125.873 24.1203 126.314 23.736 126.639 23.26C126.925 22.7805 127.072 22.2315 127.065 21.6736C127.057 21.1158 126.896 20.5707 126.599 20.0985C125.807 18.7848 124.161 18.0209 122.572 17.8301C121.008 17.7238 119.436 17.8589 117.912 18.2307C116.925 18.3606 115.969 18.6661 115.09 19.1329C114.675 19.3543 114.338 19.6971 114.123 20.1155C113.908 20.5338 113.826 21.0078 113.888 21.4741C114.02 21.9046 114.248 22.2997 114.554 22.63C114.86 22.9602 115.237 23.217 115.657 23.3812C116.296 23.6516 116.969 23.8357 117.657 23.9288C114.497 23.5186 111.287 24.0806 108.454 25.5399C104.903 27.434 102.507 30.721 101.075 34.2758Z" fill="#2F2E41"/>
<path d="M120.299 54.2161C127.308 54.2161 132.99 48.5331 132.99 41.5228C132.99 34.5125 127.308 28.8295 120.299 28.8295C113.29 28.8295 107.608 34.5125 107.608 41.5228C107.608 48.5331 113.29 54.2161 120.299 54.2161Z" fill="#A0616A"/>
<path d="M108.087 34.7168C108.823 36.9411 110.926 37.6579 112.869 38.1049C113.482 38.2478 114.099 38.3809 114.721 38.4993C114.951 38.2122 115.195 37.9309 115.45 37.6649C116.509 36.5522 117.789 35.6724 119.207 35.0814C118.593 36.3366 118.186 37.6822 118 39.0667C119.174 39.2372 120.356 39.3766 121.544 39.4847C122.549 39.6987 123.598 39.5183 124.474 38.9808C125.35 38.4433 125.986 37.5897 126.25 36.5965C127.332 38.3654 128.611 40.0312 130.359 40.7339C131.36 41.0933 132.448 41.1228 133.466 40.8182C134.484 40.5136 135.378 39.8909 136.017 39.0412C137.025 37.6553 137.724 36.069 138.067 34.3896C138.563 32.4199 138.839 30.1508 137.864 28.9011C137.084 27.8896 135.737 27.8715 134.495 27.9612C131.752 28.1716 129.039 28.6636 126.397 29.4295L126.174 29.9323C126.628 27.2046 125.643 24.5802 123.821 23.6468C122.592 23.0228 121.114 23.1274 119.677 23.254C117.832 23.3364 116.008 23.689 114.266 24.3007C112.266 25.07 110.553 26.4383 109.361 28.2185C108.086 30.1549 107.452 32.7959 108.087 34.7168Z" fill="#2F2E41"/>
<path d="M126.179 22.8529C126.054 22.816 126.379 22.8635 126.266 22.8665C126.322 22.8632 126.378 22.8555 126.432 22.8432C126.441 22.8413 126.568 22.801 126.484 22.8307C126.672 22.7743 126.841 22.6646 126.968 22.5147C127.266 22.146 127.5 21.7297 127.66 21.2832C127.862 20.6933 128.186 20.1526 128.611 19.6968C128.732 19.5755 128.879 19.4845 129.042 19.4309C129.204 19.3774 129.377 19.363 129.546 19.3888C129.716 19.4146 129.876 19.48 130.015 19.5796C130.155 19.6791 130.268 19.8101 130.347 19.9619C130.508 20.5475 130.453 21.1712 130.192 21.7196C130.011 22.2776 129.74 22.8027 129.391 23.2745C128.806 24.046 128.009 24.6306 127.098 24.9571C126.043 25.3403 124.892 25.3732 123.817 25.0509C123.675 24.9919 123.553 24.893 123.467 24.766C123.38 24.639 123.332 24.4896 123.328 24.3358C123.325 24.182 123.367 24.0306 123.448 23.9C123.529 23.7694 123.646 23.6652 123.786 23.6001L125.579 22.866C125.673 22.8245 125.775 22.802 125.878 22.7997C125.981 22.7975 126.083 22.8156 126.179 22.8529C126.275 22.8903 126.363 22.9463 126.438 23.0176C126.512 23.0889 126.572 23.1742 126.614 23.2686C126.655 23.363 126.678 23.4646 126.68 23.5677C126.682 23.6709 126.664 23.7734 126.627 23.8695C126.589 23.9656 126.533 24.0535 126.462 24.128C126.391 24.2025 126.305 24.2622 126.211 24.3037L124.418 25.0378L124.386 23.587C124.61 23.6516 124.84 23.6909 125.073 23.7044C125.321 23.7292 125.571 23.7187 125.816 23.673C126.051 23.6422 126.282 23.586 126.504 23.5052C126.647 23.4532 126.786 23.3939 126.923 23.3277C126.972 23.3036 127.022 23.2786 127.07 23.2527C127.067 23.2546 127.275 23.133 127.184 23.1901C127.416 23.0419 127.633 22.8724 127.834 22.6838C127.905 22.6169 127.97 22.5443 128.029 22.4668C128.131 22.3413 128.226 22.2099 128.312 22.0734C128.489 21.7842 128.629 21.4741 128.729 21.1503C128.774 21.0142 128.813 20.8759 128.844 20.7358C128.853 20.6589 128.867 20.5827 128.886 20.5077C128.952 20.329 128.873 20.612 128.95 20.6895L129.28 20.9331C129.342 20.9516 129.408 20.9558 129.472 20.9456C129.536 20.9354 129.596 20.9109 129.65 20.8739C129.689 20.8188 129.68 20.8279 129.624 20.9013C129.558 20.9877 129.499 21.0782 129.445 21.1721C129.326 21.3933 129.219 21.6204 129.123 21.8525C128.926 22.3461 128.677 22.8172 128.379 23.2578C128.088 23.7035 127.664 24.0458 127.166 24.2359C126.669 24.4261 126.125 24.4544 125.61 24.3169C125.417 24.24 125.262 24.0903 125.178 23.9002C125.095 23.71 125.089 23.4945 125.163 23.3003C125.242 23.1088 125.392 22.9554 125.581 22.872C125.771 22.7886 125.985 22.7818 126.179 22.8529Z" fill="#2F2E41"/>
</g>
<defs>
<clipPath id="clip0_13_47">
<rect width="452" height="309" fill="white"/>
</clipPath>
</defs>
</svg>
