<svg width="452" height="356" viewBox="0 0 452 356" fill="none" xmlns="http://www.w3.org/2000/svg">
<path d="M82.3085 41.9868C81.4603 42.0805 80.6429 42.3589 79.914 42.8026C79.185 43.2462 78.5622 43.8443 78.0894 44.5547C77.6166 45.2651 77.3054 46.0706 77.1775 46.9143C77.0497 47.758 77.1084 48.6195 77.3495 49.4381L60.4724 61.4982L70.5324 65.3696L85.017 53.3236C86.3653 52.8274 87.4847 51.8538 88.1632 50.5874C88.8417 49.3209 89.032 47.8496 88.6982 46.4522C88.3643 45.0548 87.5295 43.8284 86.3518 43.0054C85.1742 42.1825 83.7355 41.82 82.3085 41.9868Z" fill="#FFB8B8"/>
<path d="M80.7389 60.1526L59.8044 81.2165C56.9354 84.0847 53.1523 85.8571 49.1123 86.2258L23.2442 88.586C22.2959 88.6765 21.339 88.5759 20.4302 88.2903C19.5214 88.0047 18.679 87.5399 17.9529 86.9232C16.9484 86.0824 16.2014 84.9753 15.7978 83.729C15.3941 82.4828 15.3502 81.1479 15.6711 79.8778C15.992 78.6078 16.6647 77.454 17.6118 76.549C18.559 75.644 19.7422 75.0246 21.0256 74.7619L47.4527 69.1348L71.5127 51.3994C71.8472 51.2112 72.225 51.1137 72.6088 51.1165C72.9926 51.1194 73.369 51.2225 73.7007 51.4157L80.2437 56.7757C80.6374 56.9914 80.9536 57.325 81.1481 57.7296C81.3425 58.1342 81.4054 58.5895 81.3279 59.0317C81.2516 59.457 81.0459 59.8484 80.7389 60.1526Z" fill="#2F2E41"/>
<path d="M331.73 71.4726C331.886 70.0347 331.595 68.5837 330.897 67.3167C330.2 66.0498 329.129 65.0284 327.83 64.3914L197.547 0.714565C196.718 0.309233 195.818 0.0710509 194.897 0.0136262C193.977 -0.0437984 193.054 0.0806539 192.182 0.37988C191.309 0.679106 190.504 1.14725 189.813 1.75757C189.121 2.36789 188.557 3.10844 188.151 3.93694L188.149 3.94183L139.284 103.92C138.469 105.594 138.35 107.524 138.955 109.286C139.56 111.047 140.839 112.497 142.511 113.318L272.795 176.994C274.47 177.81 276.399 177.928 278.161 177.323C279.923 176.718 281.372 175.439 282.193 173.767L331.058 73.7892C331.414 73.062 331.642 72.278 331.73 71.4726Z" fill="#F2F2F2"/>
<path d="M255.405 293.374H86.3553C84.227 293.372 82.1866 292.525 80.6817 291.02C79.1767 289.515 78.3302 287.475 78.3278 285.347V55.8548C78.3302 53.7265 79.1767 51.686 80.6817 50.1811C82.1866 48.6762 84.227 47.8297 86.3553 47.8273H255.405C257.533 47.8297 259.574 48.6762 261.079 50.1811C262.583 51.686 263.43 53.7265 263.432 55.8548V285.347C263.43 287.475 262.583 289.515 261.079 291.02C259.574 292.525 257.533 293.372 255.405 293.374Z" fill="white"/>
<path d="M131.193 116.26C137.284 116.26 142.222 111.322 142.222 105.231C142.222 99.1394 137.284 94.2015 131.193 94.2015C125.102 94.2015 120.164 99.1394 120.164 105.231C120.164 111.322 125.102 116.26 131.193 116.26Z" fill="#E6E6E6"/>
<path d="M114.383 135.374C115.942 136.26 117.573 137.012 119.259 137.621L119.556 137.724C122.952 138.917 126.526 139.524 130.125 139.519C130.849 139.519 131.547 139.494 132.198 139.445C133.784 139.348 135.361 139.13 136.914 138.795C137.766 138.608 138.616 138.386 139.438 138.133C139.637 138.075 139.821 138.017 140.022 137.954C143.372 136.868 146.521 135.236 149.34 133.126C149.114 132.698 148.866 132.281 148.598 131.878C147.148 129.663 145.169 127.845 142.839 126.587C140.51 125.33 137.904 124.673 135.256 124.677H129.452C126.39 124.677 123.393 125.558 120.817 127.213C118.242 128.869 116.196 131.23 114.925 134.015C114.722 134.459 114.541 134.913 114.383 135.374Z" fill="#E6E6E6"/>
<path d="M134.936 138.52C134.565 138.547 134.209 138.672 133.902 138.882C135.459 138.786 137.005 138.571 138.529 138.24L134.936 138.52Z" fill="#2F2E41"/>
<path d="M131.862 75.301C124.758 75.3017 117.854 77.6473 112.22 81.9737C106.586 86.3 102.538 92.3651 100.704 99.2276C98.8697 106.09 99.3523 113.366 102.077 119.926C104.801 126.486 109.615 131.964 115.771 135.508C117.405 136.455 119.12 137.253 120.896 137.894L121.198 137.999C124.624 139.201 128.23 139.814 131.862 139.81C132.564 139.81 133.266 139.786 133.957 139.734C135.556 139.636 137.145 139.417 138.711 139.078C139.588 138.887 140.447 138.66 141.26 138.411C141.457 138.353 141.642 138.295 141.846 138.231C149.146 135.853 155.359 130.949 159.368 124.4C163.376 117.851 164.918 110.088 163.715 102.504C162.511 94.921 158.643 88.0155 152.804 83.0292C146.966 78.0428 139.54 75.3025 131.862 75.301ZM150.576 131.718C147.793 133.865 144.661 135.516 141.318 136.6C141.138 136.658 140.952 136.716 140.766 136.774C139.994 137.012 139.181 137.221 138.345 137.401C136.864 137.724 135.36 137.934 133.847 138.028C133.191 138.074 132.523 138.097 131.862 138.097C128.424 138.099 125.011 137.52 121.767 136.385L121.483 136.286C119.716 135.651 118.013 134.85 116.398 133.894C110.77 130.582 106.354 125.551 103.797 119.542C101.241 113.533 100.679 106.862 102.195 100.511C103.711 94.1589 107.224 88.4607 112.218 84.2534C117.212 80.0462 123.424 77.5518 129.941 77.1367C136.458 76.7217 142.936 78.4079 148.424 81.9475C153.912 85.4872 158.119 90.6936 160.428 96.8018C162.738 102.91 163.027 109.598 161.254 115.883C159.48 122.167 155.738 127.718 150.576 131.718Z" fill="#CCCCCC"/>
<path d="M255.405 293.374H86.3553C84.227 293.372 82.1866 292.525 80.6817 291.02C79.1767 289.515 78.3302 287.475 78.3278 285.347V55.8548C78.3302 53.7265 79.1767 51.686 80.6817 50.1811C82.1866 48.6762 84.227 47.8297 86.3553 47.8273H255.405C257.533 47.8297 259.574 48.6762 261.079 50.1811C262.583 51.686 263.43 53.7265 263.432 55.8548V285.347C263.43 287.475 262.583 289.515 261.079 291.02C259.574 292.525 257.533 293.372 255.405 293.374ZM86.3553 48.7717C84.4774 48.7738 82.677 49.5207 81.3492 50.8486C80.0213 52.1765 79.2744 53.9769 79.2722 55.8548V285.347C79.2744 287.225 80.0213 289.025 81.3492 290.353C82.677 291.681 84.4774 292.428 86.3553 292.43H255.405C257.283 292.428 259.083 291.681 260.411 290.353C261.739 289.025 262.486 287.225 262.488 285.347V55.8548C262.486 53.9769 261.739 52.1765 260.411 50.8486C259.083 49.5207 257.283 48.7738 255.405 48.7717L86.3553 48.7717Z" fill="#CCCCCC"/>
<path d="M222.679 107.431H174.844C173.84 107.431 172.877 107.032 172.168 106.323C171.458 105.613 171.059 104.65 171.059 103.647C171.059 102.643 171.458 101.68 172.168 100.971C172.877 100.261 173.84 99.8623 174.844 99.8623H222.679C223.683 99.8623 224.645 100.261 225.355 100.971C226.064 101.68 226.463 102.643 226.463 103.647C226.463 104.65 226.064 105.613 225.355 106.323C224.645 107.032 223.683 107.431 222.679 107.431Z" fill="#E6E6E6"/>
<path d="M238.289 120.203H174.844C173.84 120.203 172.877 119.804 172.168 119.094C171.458 118.385 171.059 117.422 171.059 116.419C171.059 115.415 171.458 114.452 172.168 113.743C172.877 113.033 173.84 112.634 174.844 112.634H238.289C239.293 112.634 240.255 113.033 240.965 113.743C241.675 114.452 242.073 115.415 242.073 116.419C242.073 117.422 241.675 118.385 240.965 119.094C240.255 119.804 239.293 120.203 238.289 120.203Z" fill="#E6E6E6"/>
<path d="M222.609 169.189H103.471C102.467 169.189 101.505 168.79 100.795 168.081C100.085 167.371 99.6867 166.408 99.6867 165.405C99.6867 164.401 100.085 163.438 100.795 162.729C101.505 162.019 102.467 161.62 103.471 161.62H222.609C223.613 161.62 224.575 162.019 225.285 162.729C225.995 163.438 226.394 164.401 226.394 165.405C226.394 166.408 225.995 167.371 225.285 168.081C224.575 168.79 223.613 169.189 222.609 169.189Z" fill="#E6E6E6"/>
<path d="M238.22 181.961H103.471C102.467 181.961 101.505 181.562 100.795 180.853C100.085 180.143 99.6867 179.18 99.6867 178.177C99.6867 177.173 100.085 176.211 100.795 175.501C101.505 174.791 102.467 174.392 103.471 174.392H238.22C239.223 174.392 240.186 174.791 240.895 175.501C241.605 176.211 242.004 177.173 242.004 178.177C242.004 179.18 241.605 180.143 240.895 180.853C240.186 181.562 239.223 181.961 238.22 181.961Z" fill="#E6E6E6"/>
<path d="M222.609 211.316H103.471C102.467 211.316 101.505 210.917 100.795 210.208C100.085 209.498 99.6867 208.536 99.6867 207.532C99.6867 206.528 100.085 205.566 100.795 204.856C101.505 204.146 102.467 203.748 103.471 203.748H222.609C223.613 203.748 224.575 204.146 225.285 204.856C225.995 205.566 226.394 206.528 226.394 207.532C226.394 208.536 225.995 209.498 225.285 210.208C224.575 210.917 223.613 211.316 222.609 211.316Z" fill="#E6E6E6"/>
<path d="M238.22 224.088H103.471C102.467 224.088 101.505 223.689 100.795 222.98C100.085 222.27 99.6867 221.307 99.6867 220.304C99.6867 219.3 100.085 218.338 100.795 217.628C101.505 216.918 102.467 216.52 103.471 216.52H238.22C239.223 216.52 240.186 216.918 240.895 217.628C241.605 218.338 242.004 219.3 242.004 220.304C242.004 221.307 241.605 222.27 240.895 222.98C240.186 223.689 239.223 224.088 238.22 224.088Z" fill="#E6E6E6"/>
<path d="M222.609 253.443H103.471C102.467 253.443 101.505 253.045 100.795 252.335C100.085 251.625 99.6867 250.663 99.6867 249.659C99.6867 248.655 100.085 247.693 100.795 246.983C101.505 246.273 102.467 245.875 103.471 245.875H222.609C223.613 245.875 224.575 246.273 225.285 246.983C225.995 247.693 226.394 248.655 226.394 249.659C226.394 250.663 225.995 251.625 225.285 252.335C224.575 253.045 223.613 253.443 222.609 253.443Z" fill="#E6E6E6"/>
<path d="M238.22 266.215H103.471C102.467 266.215 101.505 265.817 100.795 265.107C100.085 264.397 99.6867 263.435 99.6867 262.431C99.6867 261.427 100.085 260.465 100.795 259.755C101.505 259.045 102.467 258.647 103.471 258.647H238.22C239.222 258.648 240.184 259.047 240.892 259.757C241.601 260.466 241.999 261.428 241.999 262.431C241.999 263.434 241.601 264.396 240.892 265.105C240.184 265.815 239.222 266.214 238.22 266.215Z" fill="#E6E6E6"/>
<path d="M325.925 137.067C326.081 135.629 325.79 134.178 325.093 132.911C324.395 131.644 323.324 130.623 322.026 129.985L191.742 66.3087C190.913 65.9033 190.013 65.6652 189.093 65.6077C188.172 65.5503 187.249 65.6748 186.377 65.974C185.504 66.2732 184.699 66.7414 184.008 67.3517C183.316 67.962 182.752 68.7026 182.346 69.5311L182.344 69.5359L133.479 169.514C132.664 171.188 132.546 173.118 133.15 174.88C133.755 176.642 135.034 178.091 136.707 178.912L266.99 242.589C268.665 243.404 270.594 243.522 272.356 242.917C274.118 242.312 275.568 241.034 276.388 239.361L325.253 139.383C325.61 138.656 325.837 137.872 325.925 137.067Z" fill="white"/>
<path d="M325.925 137.067C326.081 135.629 325.79 134.178 325.093 132.911C324.395 131.644 323.324 130.623 322.026 129.985L191.742 66.3087C190.913 65.9033 190.013 65.6652 189.093 65.6077C188.172 65.5503 187.249 65.6748 186.377 65.974C185.504 66.2732 184.699 66.7414 184.008 67.3517C183.316 67.962 182.752 68.7026 182.346 69.5311L182.344 69.5359L133.479 169.514C132.664 171.188 132.546 173.118 133.15 174.88C133.755 176.642 135.034 178.091 136.707 178.912L266.99 242.589C268.665 243.404 270.594 243.522 272.356 242.917C274.118 242.312 275.568 241.034 276.388 239.361L325.253 139.383C325.61 138.656 325.837 137.872 325.925 137.067ZM275.645 238.998C274.922 240.474 273.643 241.603 272.088 242.137C270.533 242.67 268.831 242.566 267.353 241.846L137.07 178.169C135.594 177.446 134.465 176.166 133.931 174.612C133.398 173.057 133.502 171.354 134.222 169.877L183.087 69.8989C183.81 68.4231 185.09 67.2945 186.644 66.7607C188.199 66.2269 189.901 66.3314 191.379 67.0513L321.663 130.728C323.138 131.452 324.267 132.731 324.801 134.286C325.335 135.84 325.23 137.543 324.51 139.02L275.645 238.998Z" fill="#3F3D56"/>
<path d="M311.715 141.613L277.594 211.424C277.366 211.89 276.963 212.247 276.473 212.415C275.982 212.584 275.445 212.551 274.979 212.323L156.468 154.401C156.383 154.36 156.302 154.312 156.226 154.258C155.837 153.993 155.557 153.598 155.436 153.143C155.316 152.689 155.363 152.206 155.569 151.784L189.69 81.9726C189.803 81.7418 189.96 81.5355 190.152 81.3654C190.345 81.1953 190.569 81.0648 190.812 80.9813C191.055 80.8979 191.312 80.863 191.568 80.8788C191.824 80.8946 192.075 80.9608 192.306 81.0735L310.816 138.996C311.282 139.224 311.639 139.627 311.807 140.118C311.976 140.608 311.943 141.146 311.715 141.612L311.715 141.613Z" fill="#E6E6E6"/>
<path d="M207.671 138.067C217.15 138.067 224.834 130.383 224.834 120.905C224.834 111.426 217.15 103.742 207.671 103.742C198.192 103.742 190.508 111.426 190.508 120.905C190.508 130.383 198.192 138.067 207.671 138.067Z" fill="#66D1FF"/>
<path d="M232.801 192.056L157.157 155.084C157.062 155.039 156.971 154.985 156.885 154.924L222.949 110.44C223.356 110.161 223.83 109.994 224.322 109.958C224.814 109.922 225.307 110.017 225.751 110.234C226.194 110.451 226.572 110.781 226.846 111.192C227.12 111.602 227.28 112.078 227.31 112.571L230.994 165.893L231.172 168.445L232.801 192.056Z" fill="#3F3D56"/>
<path opacity="0.2" d="M232.801 192.056L206.974 179.432L228.653 167.213L230.214 166.333L230.994 165.893L231.172 168.445L232.801 192.056Z" fill="black"/>
<path d="M274.919 212.641L209.493 180.664L231.172 168.445L232.733 167.564L260.983 151.64C262.835 150.596 265.489 151.772 266.091 153.768C266.13 153.904 266.161 154.042 266.183 154.181L274.919 212.641Z" fill="#3F3D56"/>
<path d="M73.0498 218.734L80.1659 218.734L83.5518 191.284L73.048 191.285L73.0498 218.734Z" fill="#FFB8B8"/>
<path d="M71.2342 216.411L85.2491 216.41C86.422 216.41 87.5841 216.641 88.6677 217.09C89.7513 217.539 90.7359 218.197 91.5653 219.026C92.3947 219.856 93.0525 220.84 93.5014 221.924C93.9502 223.007 94.1812 224.169 94.1812 225.342V225.632L71.2346 225.633L71.2342 216.411Z" fill="#2F2E41"/>
<path d="M17.7342 214.203L25.1074 215.645L34.1791 187.892L23.2975 185.764L17.7342 214.203Z" fill="#FFB8B8"/>
<path d="M16.3246 211.428L30.8449 214.268L30.8455 214.268C32.0607 214.506 33.2172 214.981 34.2489 215.665C35.2806 216.35 36.1673 217.231 36.8585 218.259C37.5497 219.286 38.0317 220.439 38.2771 221.653C38.5224 222.867 38.5263 224.117 38.2886 225.332L38.2297 225.633L14.4557 220.982L16.3246 211.428Z" fill="#2F2E41"/>
<path d="M83.4032 124.046C83.1623 123.227 82.7448 122.471 82.1801 121.832C81.6154 121.192 80.9174 120.684 80.135 120.343C79.3527 120.002 78.5052 119.837 77.6521 119.859C76.799 119.881 75.9612 120.09 75.1976 120.471L60.3639 105.971L58.3173 116.554L72.7173 128.701C73.4424 129.941 74.5972 130.873 75.963 131.319C77.3288 131.764 78.8107 131.694 80.1279 131.12C81.4451 130.546 82.506 129.509 83.1097 128.205C83.7133 126.901 83.8178 125.422 83.4032 124.046Z" fill="#FFB8B8"/>
<path d="M28.3685 49.4129C36.2425 49.4129 42.6257 43.0297 42.6257 35.1557C42.6257 27.2817 36.2425 20.8986 28.3685 20.8986C20.4945 20.8986 14.1114 27.2817 14.1114 35.1557C14.1114 43.0297 20.4945 49.4129 28.3685 49.4129Z" fill="#FFB8B8"/>
<path d="M25.3747 49.631C26.1322 49.9624 27.6834 43.9264 26.9886 42.7192C25.9552 40.9238 26.0163 40.9367 25.3303 39.7489C24.6442 38.5611 24.4908 36.9352 25.3791 35.8901C26.2675 34.8449 28.3233 34.9836 28.7287 36.294C28.4679 33.805 30.9298 31.8043 33.3685 31.242C35.8071 30.6798 38.3794 31.0288 40.8315 30.5285C43.6773 29.9478 46.6381 27.5624 45.5027 24.4331C45.3079 23.9121 45.0162 23.4326 44.643 23.0201C43.3312 21.5452 41.4961 20.9154 39.702 20.3064C35.9695 19.0395 32.1349 17.7567 28.1957 17.8966C24.95 18.0663 21.8242 19.1785 19.2008 21.097C16.5773 23.0156 14.5701 25.6573 13.4247 28.6989C13.1532 29.4598 12.9429 30.2411 12.7957 31.0355C11.4437 38.3055 15.6654 45.4766 22.5224 48.245L25.3747 49.631Z" fill="#2F2E41"/>
<path d="M21.8742 127.951C21.5106 127.732 21.2191 127.41 21.0358 127.027C20.8524 126.644 20.7852 126.215 20.8422 125.794L14.4087 93.9248L7.88744 69.4665C7.17151 66.7865 7.38787 63.9427 8.50077 61.4017C9.61367 58.8607 11.5571 56.7734 14.0124 55.4823L18.3236 51.4031L27.7287 55.4551L32.1978 59.9991C35.4033 61.5599 38.2467 63.7741 40.5453 66.4994C42.844 69.2246 44.547 72.4007 45.5449 75.8234L52.7128 100.351L69.2665 124.979C69.5429 125.39 69.6722 125.882 69.6332 126.375C69.5943 126.868 69.3895 127.334 69.0521 127.696C66.7492 130.173 21.8742 127.951 21.8742 127.951Z" fill="#2F2E41"/>
<path d="M65.2437 125.687L40.8342 108.773C37.5072 106.451 35.0987 103.038 34.027 99.1249L27.1657 74.0719C26.9103 73.1541 26.8414 72.1945 26.9632 71.2497C27.0849 70.3048 27.3948 69.394 27.8746 68.571C28.5261 67.4345 29.485 66.5049 30.6412 65.8889C31.7973 65.2729 33.1037 64.9955 34.4104 65.0887C35.7171 65.1818 36.971 65.6416 38.0281 66.4153C39.0852 67.1891 39.9025 68.2453 40.3863 69.4627L50.5619 94.493L72.2428 115.069C72.4868 115.365 72.6491 115.72 72.7136 116.098C72.7781 116.477 72.7426 116.865 72.6106 117.226L68.4814 124.608C68.3381 125.033 68.0652 125.403 67.701 125.665C67.3368 125.928 66.8995 126.069 66.4506 126.071C66.0185 126.07 65.597 125.936 65.2437 125.687Z" fill="#2F2E41"/>
<path d="M14.5331 209.955C14.3336 209.669 14.2058 209.339 14.1606 208.993C14.1153 208.647 14.154 208.296 14.2733 207.968L25.5657 166.917L26.4005 126.692L64.4139 124.085L64.5984 124.073L76.0478 144.824C79.6325 151.312 81.8269 158.476 82.4913 165.858L86.2644 207.205C86.3215 207.767 86.1557 208.329 85.8029 208.771C85.4501 209.212 84.9383 209.497 84.3775 209.565L72.9156 210.655C72.3633 210.722 71.8067 210.571 71.3643 210.233C70.922 209.896 70.629 209.399 70.5479 208.849L65.8936 166.832L49.147 138.537L43.5256 168.326L31.8796 209.464C31.7273 209.874 31.4537 210.229 31.0952 210.481C30.7366 210.732 30.3101 210.869 29.8721 210.872L16.2888 210.878C15.943 210.879 15.602 210.796 15.2959 210.635C14.9898 210.474 14.7279 210.241 14.5331 209.955Z" fill="#2F2E41"/>
<path d="M305.601 344.968H19.1558C14.0771 344.962 9.2081 342.942 5.61694 339.351C2.02577 335.76 0.00573686 330.891 0 325.812V168.503C0.00573686 163.424 2.02577 158.555 5.61694 154.964C9.2081 151.373 14.0771 149.353 19.1558 149.347H54.2763C59.0416 149.343 63.6365 151.119 67.1601 154.327L105.246 181.523C107.729 183.792 110.972 185.049 114.336 185.046H307.38C309.919 185.046 312.433 185.551 314.775 186.531C317.118 187.512 319.242 188.948 321.024 190.756C322.806 192.565 324.211 194.71 325.157 197.066C326.103 199.422 326.571 201.943 326.534 204.482L324.755 326.092C324.661 331.117 322.604 335.906 319.025 339.433C315.445 342.961 310.627 344.948 305.601 344.968Z" fill="white"/>
<path d="M303.057 335.681H20.8504C18.4005 335.678 16.0516 334.703 14.3192 332.971C12.5868 331.238 11.6123 328.89 11.6096 326.44V166.558C11.6123 164.108 12.5868 161.759 14.3192 160.027C16.0516 158.294 18.4005 157.32 20.8504 157.317C23.0174 157.319 25.095 158.181 26.6273 159.714C28.1596 161.246 29.0215 163.323 29.0239 165.49V315.411C29.0265 317.707 29.9398 319.908 31.5634 321.532C33.187 323.155 35.3882 324.068 37.6843 324.071H302.103C303.417 324.056 304.698 324.482 305.741 325.28C306.784 326.079 307.53 327.204 307.859 328.475C308.228 329.681 308.182 330.976 307.729 332.153C307.276 333.329 306.441 334.321 305.359 334.968C304.673 335.415 303.875 335.661 303.057 335.681Z" fill="#F2F2F2"/>
<path d="M164.522 258.899L163.779 258.156C163.625 258.012 163.534 257.812 163.527 257.602C163.52 257.391 163.598 257.186 163.742 257.032C163.754 257.019 163.766 257.007 163.779 256.995L170.297 250.471C170.369 250.394 170.455 250.333 170.55 250.29C170.645 250.247 170.747 250.223 170.852 250.219C170.956 250.216 171.06 250.233 171.158 250.27C171.256 250.307 171.345 250.362 171.421 250.434C171.434 250.446 171.446 250.458 171.458 250.471L177.977 256.989C178.053 257.063 178.114 257.151 178.157 257.248C178.199 257.345 178.222 257.45 178.223 257.556C178.225 257.662 178.206 257.767 178.167 257.865C178.129 257.964 178.071 258.054 177.997 258.13L177.977 258.15L177.234 258.893C177.161 258.97 177.073 259.031 176.975 259.073C176.878 259.115 176.774 259.138 176.668 259.14C176.562 259.141 176.457 259.122 176.358 259.084C176.259 259.045 176.169 258.987 176.093 258.913L176.073 258.893L172.219 254.83V264.472C172.22 264.577 172.2 264.681 172.16 264.779C172.121 264.876 172.062 264.965 171.988 265.04C171.914 265.115 171.827 265.174 171.73 265.215C171.633 265.256 171.529 265.278 171.424 265.279L171.418 265.279H170.344C170.13 265.279 169.925 265.194 169.773 265.042C169.622 264.891 169.537 264.686 169.537 264.472V254.842L165.683 258.905C165.533 259.058 165.329 259.146 165.115 259.148C164.901 259.151 164.695 259.069 164.542 258.919L164.522 258.899Z" fill="#66D1FF"/>
<path d="M170.866 244.544C173.483 244.544 176.041 245.32 178.216 246.773C180.392 248.227 182.087 250.293 183.088 252.71C184.09 255.128 184.352 257.788 183.841 260.354C183.331 262.92 182.071 265.277 180.221 267.127C178.371 268.978 176.013 270.237 173.447 270.748C170.881 271.258 168.221 270.996 165.804 269.995C163.386 268.994 161.32 267.298 159.867 265.123C158.413 262.947 157.637 260.389 157.637 257.773C157.64 254.265 159.035 250.902 161.515 248.422C163.996 245.942 167.359 244.547 170.866 244.544ZM170.866 242.802C167.905 242.802 165.011 243.68 162.549 245.325C160.087 246.97 158.168 249.309 157.035 252.044C155.902 254.78 155.606 257.79 156.183 260.694C156.761 263.598 158.187 266.265 160.281 268.359C162.374 270.452 165.042 271.878 167.946 272.456C170.85 273.034 173.86 272.737 176.595 271.604C179.331 270.471 181.669 268.552 183.314 266.09C184.959 263.628 185.837 260.734 185.837 257.773C185.837 253.803 184.26 249.995 181.452 247.187C178.645 244.38 174.837 242.802 170.866 242.802Z" fill="#3F3D56"/>
<path d="M305.601 344.968H19.1558C14.0771 344.962 9.2081 342.942 5.61694 339.351C2.02577 335.76 0.00573686 330.891 0 325.812V168.503C0.00573686 163.424 2.02577 158.555 5.61694 154.964C9.2081 151.373 14.0771 149.353 19.1558 149.347H54.2763C59.0416 149.343 63.6365 151.119 67.1601 154.327L105.246 181.523C107.729 183.792 110.972 185.049 114.336 185.046H307.38C309.919 185.046 312.433 185.551 314.775 186.531C317.118 187.512 319.242 188.948 321.024 190.756C322.806 192.565 324.211 194.71 325.157 197.066C326.103 199.422 326.571 201.943 326.534 204.482L324.755 326.092C324.661 331.117 322.604 335.906 319.025 339.433C315.445 342.961 310.627 344.948 305.601 344.968ZM19.1558 150.508C14.3849 150.513 9.81103 152.411 6.43751 155.784C3.064 159.158 1.16638 163.732 1.16096 168.503V325.812C1.16638 330.583 3.064 335.157 6.43751 338.531C9.81103 341.904 14.3849 343.802 19.1558 343.807H305.601C310.322 343.788 314.848 341.922 318.211 338.608C321.574 335.294 323.506 330.796 323.594 326.075L325.373 204.465C325.408 202.08 324.968 199.712 324.08 197.498C323.191 195.285 321.871 193.27 320.197 191.571C318.523 189.872 316.527 188.523 314.327 187.602C312.127 186.682 309.765 186.207 307.38 186.207H114.336C110.695 186.21 107.183 184.854 104.49 182.404L66.4036 155.208C63.0907 152.181 58.7641 150.504 54.2763 150.508H19.1558Z" fill="#3F3D56"/>
<path d="M329.877 348.031H322.761L320.536 320.581L329.878 320.582L329.877 348.031Z" fill="#FFB8B8"/>
<path d="M331.692 354.929L308.745 354.929V354.638C308.745 353.466 308.976 352.304 309.425 351.22C309.874 350.137 310.532 349.152 311.361 348.323C312.191 347.494 313.175 346.836 314.259 346.387C315.343 345.938 316.504 345.707 317.677 345.707L331.692 345.708L331.692 354.929Z" fill="#2F2E41"/>
<path d="M409.403 348.031H402.286L398.901 320.581L409.404 320.582L409.403 348.031Z" fill="#FFB8B8"/>
<path d="M411.218 354.929L388.271 354.929V354.638C388.271 353.466 388.502 352.304 388.951 351.22C389.4 350.137 390.058 349.152 390.887 348.323C391.716 347.494 392.701 346.836 393.785 346.387C394.868 345.938 396.03 345.707 397.203 345.707L411.218 345.708L411.218 354.929Z" fill="#2F2E41"/>
<path d="M386.003 263.173C386.985 262.022 387.539 260.566 387.57 259.053C387.601 257.539 387.107 256.062 386.172 254.872C385.983 254.644 385.775 254.432 385.55 254.238L390.911 234.449L381.977 237.413L378.256 255.751C377.639 256.881 377.366 258.168 377.471 259.452C377.576 260.736 378.054 261.962 378.847 262.977C379.262 263.525 379.794 263.973 380.405 264.288C381.017 264.602 381.691 264.775 382.378 264.794C383.065 264.813 383.747 264.677 384.375 264.397C385.002 264.116 385.559 263.698 386.003 263.173Z" fill="#FFB8B8"/>
<path d="M385.659 251C385.547 251 385.435 250.991 385.325 250.975L380.669 250.273C380.307 250.21 379.963 250.07 379.661 249.86C379.359 249.651 379.106 249.378 378.921 249.061C378.517 248.386 378.372 247.587 378.512 246.813L384.32 214.375L380.381 193.535C379.622 189.524 381.581 185.474 384.939 184.113C385.935 183.705 387.02 183.563 388.087 183.7C389.155 183.837 390.169 184.248 391.03 184.893C391.959 185.597 392.729 186.488 393.292 187.509C393.854 188.53 394.195 189.657 394.293 190.819L397.081 217.391L397.047 217.507L388.075 248.997C387.946 249.548 387.64 250.043 387.204 250.404C386.768 250.766 386.225 250.975 385.659 251Z" fill="#66D1FF"/>
<path d="M384.284 172.628C392.158 172.628 398.542 166.245 398.542 158.371C398.542 150.497 392.158 144.114 384.284 144.114C376.41 144.114 370.027 150.497 370.027 158.371C370.027 166.245 376.41 172.628 384.284 172.628Z" fill="#FFB8B8"/>
<path d="M376.985 224.644C376.63 224.645 376.278 224.579 375.946 224.451L353.412 215.784C352.802 215.551 352.288 215.119 351.955 214.557C351.622 213.996 351.489 213.338 351.577 212.691L352.482 205.904C351.945 203.497 351.994 200.997 352.626 198.614C353.257 196.231 354.452 194.035 356.11 192.21L356.658 191.606L363.325 179.449C363.777 178.625 364.387 177.899 365.121 177.312C365.855 176.726 366.697 176.29 367.6 176.031C368.503 175.771 369.448 175.693 370.381 175.801C371.314 175.908 372.217 176.2 373.037 176.658L384.811 183.237C386.36 184.102 387.53 185.515 388.09 187.199C389.675 191.966 389.557 197.135 387.758 201.825L379.697 222.784C379.484 223.33 379.111 223.8 378.627 224.132C378.144 224.464 377.571 224.642 376.985 224.644Z" fill="#66D1FF"/>
<path d="M317.928 341.291L317.898 341.285C317.513 341.211 317.148 341.06 316.823 340.842C316.499 340.623 316.222 340.341 316.009 340.012C315.797 339.683 315.653 339.315 315.586 338.93C315.519 338.544 315.531 338.149 315.621 337.768L332.89 262.283C335.717 250.316 339.622 238.631 344.558 227.369L351.905 210.619L379.319 223.134L383.233 230.293C386.285 238.265 387.854 246.729 387.863 255.266L415.718 336.9C415.854 337.299 415.902 337.722 415.858 338.141C415.814 338.56 415.679 338.964 415.463 339.325C415.247 339.687 414.955 339.997 414.607 340.235C414.259 340.472 413.864 340.631 413.449 340.7L398.2 340.528C398.056 340.553 397.91 340.566 397.764 340.564C397.186 340.565 396.621 340.392 396.143 340.067C395.665 339.743 395.295 339.282 395.082 338.745L363.24 256.209C363.194 256.099 363.117 256.006 363.017 255.942C362.917 255.878 362.8 255.845 362.681 255.849C362.565 255.851 362.453 255.889 362.359 255.957C362.265 256.025 362.195 256.121 362.157 256.23L331.945 339.177C331.713 339.822 331.26 340.364 330.665 340.705C330.071 341.046 329.375 341.165 328.701 341.041L317.928 341.291Z" fill="#2F2E41"/>
<path d="M338.775 248.463C339.579 248.177 340.311 247.719 340.918 247.119C341.526 246.52 341.995 245.795 342.291 244.995C342.588 244.195 342.706 243.339 342.637 242.489C342.567 241.638 342.312 240.813 341.89 240.072L355.544 224.457L344.864 223L333.535 238.052C332.336 238.845 331.471 240.05 331.101 241.438C330.732 242.827 330.885 244.302 331.531 245.586C332.177 246.869 333.271 247.871 334.606 248.401C335.941 248.931 337.425 248.954 338.775 248.463Z" fill="#FFB8B8"/>
<path d="M345.212 237.463C344.737 237.463 344.269 237.346 343.849 237.123L339.044 234.56C338.692 234.372 338.382 234.113 338.134 233.8C337.886 233.486 337.705 233.125 337.604 232.739C337.502 232.352 337.481 231.949 337.542 231.554C337.603 231.159 337.745 230.781 337.959 230.444L355.707 202.478L358.785 181.374C358.944 180.283 359.323 179.236 359.898 178.296C360.474 177.356 361.234 176.542 362.133 175.905C363.032 175.267 364.052 174.819 365.129 174.586C366.207 174.354 367.32 174.343 368.402 174.553C369.484 174.764 370.512 175.192 371.424 175.811C372.336 176.431 373.112 177.229 373.707 178.157C374.301 179.085 374.701 180.125 374.882 181.212C375.063 182.299 375.022 183.412 374.76 184.483L368.406 210.495L347.472 236.387C347.2 236.724 346.856 236.996 346.465 237.182C346.073 237.368 345.645 237.465 345.212 237.463Z" fill="#66D1FF"/>
<path d="M371.451 146.608C373.101 141.2 382.629 138.787 390.548 141.031C398.468 143.275 404.157 149.157 405.481 154.909C408.414 167.646 393.117 177.984 395.889 190.722C397.723 199.15 408.332 207.118 420.281 209.043C407.113 211.798 391.04 209.376 378.829 202.797C371.229 198.703 364.853 192.524 364.949 186.291C365.007 182.518 367.408 179.181 370.343 176.298C373.279 173.415 376.793 170.852 379.487 167.843C382.181 164.834 384.048 161.231 383.262 157.411C382.475 153.591 378.481 149.607 373.107 148.496L371.451 146.608Z" fill="#2F2E41"/>
<path d="M450.856 355.997H229.694C229.54 355.997 229.392 355.936 229.283 355.827C229.174 355.718 229.113 355.571 229.113 355.417C229.113 355.263 229.174 355.115 229.283 355.006C229.392 354.898 229.54 354.836 229.694 354.836H450.856C451.01 354.836 451.158 354.898 451.266 355.006C451.375 355.115 451.436 355.263 451.436 355.417C451.436 355.571 451.375 355.718 451.266 355.827C451.158 355.936 451.01 355.997 450.856 355.997Z" fill="#CCCCCC"/>
</svg>
